<svg xmlns="http://www.w3.org/2000/svg" width="136" height="24" fill="none" viewBox="0 0 136 24" focusable="false" aria-hidden="true" class="_logo_gv9a5_153"><path fill="#fff" d="M24.518 0H16.96c-.24 0-.401.16-.401.32v8.237c0 .16-.161.24-.242.08L7.315.08c0-.08-.08-.08-.16-.08H.401C.16 0 0 .16 0 .32v6.558c0 .08 0 .16.08.16l17.525 16.874c0 .08.08.08.16.08h6.833c.241 0 .402-.16.402-.4V.32c-.08-.16-.241-.32-.482-.32M7.958 16.003H.402c-.241 0-.402.16-.402.32V23.6c0 .24.16.4.402.4h7.556c.241 0 .402-.16.402-.32v-7.277c0-.24-.241-.4-.402-.4M37 6h1.518l5.913 8.88-.08-.8V6h1.599v11.52h-1.52l-5.913-8.88.08.8v8.08H37zm11.35 0h7.75v1.44h-6.152v3.76h5.274v1.2h-5.274v3.76h6.153v1.44H48.35zm10.144 0h1.678l3.037 8.72.16.8.16-.8L66.564 6h1.758l-3.996 11.52H62.57zM70.64 6h7.75v1.44h-6.152v3.76h5.274v1.2h-5.274v3.76h6.153v1.44H70.64zm15.264 0c1.199 0 2.158.32 2.717.88.64.56.959 1.44.959 2.56 0 .88-.24 1.6-.64 2.08-.399.48-1.038.88-1.837 1.04l2.717 4.96h-1.838l-2.557-4.72h-3.037v4.72H80.79V6zm-.24 5.44c.64 0 1.199-.16 1.599-.56.4-.32.639-.88.639-1.52s-.16-1.12-.56-1.52q-.599-.48-1.678-.48h-3.356v4h3.356zM92.216 6h1.598v5.12h5.833V6h1.599v11.52h-1.599v-5.04h-5.833v5.04h-1.598zm21.251 11.52h-1.758l-3.037-8.72-.16-.8-.159.8-3.037 8.72h-1.758L107.554 6h1.757zm7.115.48c-.958 0-1.758-.16-2.477-.48a3.7 3.7 0 0 1-1.678-1.44c-.399-.64-.559-1.36-.559-2.24v-3.68c0-.88.16-1.6.559-2.24q.6-.96 1.678-1.44c.719-.32 1.519-.48 2.477-.48.879 0 1.678.16 2.398.4.639.32 1.198.72 1.598 1.2.399.56.639 1.12.719 1.92h-1.598A2.78 2.78 0 0 0 122.74 8c-.559-.4-1.199-.56-2.078-.56-.559 0-1.118.08-1.598.32-.479.24-.879.56-1.118.96s-.4.88-.4 1.44v3.68c0 .56.16 1.04.4 1.44.239.4.639.72 1.118.96s1.039.32 1.598.32c.879 0 1.598-.16 2.078-.56q.839-.6.959-1.68h1.598c-.08 1.12-.559 2.08-1.359 2.72q-1.318.96-3.356.96m8.626-12v5.04L133.843 6h1.997l-5.274 5.76L136 17.6h-2.157l-4.715-5.04v5.04h-1.598V6z"></path></svg>